# xmcd CD database file
#
# Track frame offsets:
#	150
#	43327
#	63298
#	91764
#	141116
#	189446
#	221548
#	236748
#	271395
#	306976
#	332021
#
# Disc length: 4689 seconds
#
# Revision: 0
# Processed by: cddbd v1.5.2PL0 Copyright (c) Steve Scherf et al.
# Submitted via: CDex 1.51
#
DISCID=a0124f0b
DTITLE=Enrico Rava - New York Days
DYEAR=2009
DGENRE=Jazz
TTITLE0=Lulu
TTITLE1=Improvisation I
TTITLE2=Outsider
TTITLE3=Certi Angoli Segreti
TTITLE4=Interiors
TTITLE5=Thank You, Come Again
TTITLE6=Count Dracula
TTITLE7=Luna Urbana
TTITLE8=Improvisation II
TTITLE9=Lady Orlando
TTITLE10=Blancasnow
EXTD=YEAR: 2009
EXTT0=
EXTT1=
EXTT2=
EXTT3=
EXTT4=
EXTT5=
EXTT6=
EXTT7=
EXTT8=
EXTT9=
EXTT10=
PLAYORDER=
